<svg viewBox="0 0 200 200" xmlns="http://www.w3.org/2000/svg">
  <rect width="200" height="200" fill="#e8f8e8" rx="12"/>
  
  <!-- Community figures -->
  <g transform="translate(50, 80)">
    <!-- Person 1 -->
    <circle cx="0" cy="0" r="12" fill="#0aa06e"/>
    <path d="M 0 12 L 0 35" stroke="#0aa06e" stroke-width="4"/>
    <line x1="-12" y1="20" x2="-25" y2="35" stroke="#0aa06e" stroke-width="3"/>
    <line x1="12" y1="20" x2="25" y2="35" stroke="#0aa06e" stroke-width="3"/>
  </g>
  
  <g transform="translate(100, 60)">
    <!-- Person 2 -->
    <circle cx="0" cy="0" r="14" fill="#005a87"/>
    <path d="M 0 14 L 0 40" stroke="#005a87" stroke-width="4"/>
    <line x1="-14" y1="22" x2="-30" y2="40" stroke="#005a87" stroke-width="3"/>
    <line x1="14" y1="22" x2="30" y2="40" stroke="#005a87" stroke-width="3"/>
  </g>
  
  <!-- Heart with hands -->
  <path d="M 100 110 Q 80 100 75 85 Q 70 75 80 70 Q 90 75 100 90 Q 110 75 120 70 Q 130 75 125 85 Q 120 100 100 110" 
        fill="#e74c3c" opacity="0.7"/>
</svg>